# xmcd CD database file
# Copyright (C) 1993-1998 Ti Kan
#
# Track frame offsets:
#	150
#	10105
#	21060
#	32005
#	48452
#	59145
#	70127
#	82650
#	92762
#	101117
#	112792
#	122370
#	134452
#	152910
#	167130
#	182267
#	192670
#	203542
#	214462
#	226717
#
# Disc length: 3198 seconds
#
# Revision: 1
# Processed by: cddbd v1.4b41PL1 Copyright (c) Steve Scherf et al.
# Submitted via: CDValet v3.31 - Copyright (c) 1997 Greg Leichner
#
DISCID=050c7c14
DTITLE=Jimmy C. Newman - Cajun Country Classics
DYEAR=1900
DGENRE=
TTITLE0=Alligator Man
TTITLE1=Bigmamou
TTITLE2=Allons A Lafayette
TTITLE3=Sugarbee
TTITLE4=Lousiana Man
TTITLE5=Diggy Liggy Loo
TTITLE6=Jolie Blon
TTITLE7=Colinda
TTITLE8=Thibodeaux and His Cajun Band
TTITLE9=Boo-Dan
TTITLE10=Louisiana Saturday Night
TTITLE11=Jambalaya (On The Bayou)
TTITLE12=Lache Pas La Patate
TTITLE13=Basile Waltz
TTITLE14=Sweet Suzannah
TTITLE15=The Happy Cajun
TTITLE16=Grand Chenier
TTITLE17=Big Bayou
TTITLE18=A Cajun Man Can
TTITLE19=Daydreamin'
EXTD=
EXTT0=
EXTT1=
EXTT2=
EXTT3=
EXTT4=
EXTT5=
EXTT6=
EXTT7=
EXTT8=
EXTT9=
EXTT10=
EXTT11=
EXTT12=
EXTT13=
EXTT14=
EXTT15=
EXTT16=
EXTT17=
EXTT18=
EXTT19=
PLAYORDER=
